<?xml version="1.0" encoding="utf-8"?>
<!-- Generator: Adobe Illustrator 27.7.0, SVG Export Plug-In . SVG Version: 6.00 Build 0)  -->
<svg version="1.1" id="Layer_1" xmlns="http://www.w3.org/2000/svg" xmlns:xlink="http://www.w3.org/1999/xlink" x="0px" y="0px"
	 viewBox="0 0 291.1 93.7" style="enable-background:new 0 0 291.1 93.7;" xml:space="preserve">
<style type="text/css">
	.st0{fill:#60B492;}
</style>
<g>
	<g>
		<path class="st0" id="travis-svg-t" d="M25.6,31.4H6.3L8.9,15h57.5l-2.6,16.4H44.5L36,85H17.1L25.6,31.4z"/>
		<path class="st0" d="M63.3,33h18.5l-2,13.2h0.6c3.5-8.9,8.8-13.7,16.1-13.7c1.1,0,2.4,0.1,4,0.5L98,48.5c-1.7-0.2-3.2-0.3-4.2-0.3
			c-6.8,0-14.7,2.9-16.7,15.2L73.6,85H55.1L63.3,33z"/>
		<path class="st0" d="M95.7,73.2c0-10.5,8.3-15.9,21.8-18.1l7.2-1.4C129,53,130.5,52,131,50l0.1-0.7c0.6-2.4-1-4.1-4.8-4.1
			c-2.6,0-6.3,0.8-7,4.9l-0.2,1.2h-17.4l0.4-2.8c1.6-10.1,8.8-16.5,26.4-16.5c16.8,0,22.6,5.9,20.8,16.7L143.5,85h-17.6l1.5-9h-0.8
			c-1.3,2.6-5.3,10-16.8,10C103,86,95.7,83.3,95.7,73.2z M119.4,73c4,0,8-2.4,8.7-6.2l0.8-4.3c-1.9,1.7-4.6,1.6-6.1,2.1l-4.4,0.9
			c-2.2,0.6-3.7,1.7-3.7,3.8C114.7,70.8,115.2,73,119.4,73z"/>
		<path class="st0" d="M155,33h18.7l5.4,34.2h0.6l16-34.2h19l-26.1,52H165L155,33z"/>
		<path class="st0" d="M220.5,33H239l-8.2,52h-18.5L220.5,33z M231.7,10.2c5.1,0,9.7,4.2,9.7,9.6s-4.6,9.5-9.7,9.5
			c-5.2,0-9.8-4.1-9.8-9.5S226.5,10.2,231.7,10.2z"/>
		<path class="st0" d="M240,67.5h16.1c0.2,3.1,1.7,5.5,7.1,5.5c4.2,0,6-1.5,6-3.2c0-1-0.4-2.4-4.5-3.3l-7.3-1.6
			c-10-2.4-13.1-8.3-13.1-14.8c0-11.6,10.4-18.1,23.7-18.1c15.2,0,22.3,7.6,20.3,18.8h-15.1c0.4-4-2-5.8-6.1-5.8
			c-2.8,0-5.8,1-5.8,3.3c0,2.7,3,3.2,7.7,4.2l6.2,1.3c7.2,1.6,12.6,4.9,12.6,13.4c0,12.2-11.7,18.8-26.6,18.8
			C246.5,86,238.1,79.6,240,67.5z"/>
	</g>
</g>
</svg>
