<?xml version="1.0" encoding="utf-8"?>
<!-- Generator: Adobe Illustrator 27.7.0, SVG Export Plug-In . SVG Version: 6.00 Build 0)  -->
<svg version="1.1" id="Layer_1" xmlns="http://www.w3.org/2000/svg" xmlns:xlink="http://www.w3.org/1999/xlink" x="0px" y="0px"
	 viewBox="0 0 1920 282" style="enable-background:new 0 0 1920 282;" xml:space="preserve">
<style type="text/css">
	.st0{fill:#121719;}
	.st1{fill:#0D1214;}
</style>
<polygon class="st0" points="0,168.8 78,114.5 60,190.5 156,124.5 162.3,190.5 356,55.5 329,123 397,80.5 374,171.5 470.3,123 
	451.7,190.5 658,84.5 639.7,147 790,66.5 777,160.5 974,28.5 900,163.5 985,131.5 985,164.5 1150.3,109.5 1126,166.5 1201,136.5 
	1191.7,190.5 1364,86.5 1336,166.5 1427.7,109.5 1409,198.5 1578,75.5 1544,179.5 1625,107.5 1596,192.5 1646,170.5 1646,211.5 
	1845,86.5 1816,191.5 1913,154.5 1873,218.5 1920,203.5 1920,276.8 0,276.5 "/>
<polygon class="st1" points="0,219.5 148,94.5 126,183.5 349,11.5 286,158.5 482,62.5 430,180.5 618,22.5 600,80.5 644,64.5 
	600,152.5 772,20.5 758.3,115.5 900,36.5 826,148.5 974,88.5 947,166.5 1156,54.5 1097,166.5 1210,88.5 1159,188.5 1357,59.5 
	1337,115.5 1429,52.5 1352,195.5 1562,62.5 1547.7,115.5 1618,72.5 1580,164.5 1650,132.5 1618,207.5 1800,90.5 1768,180.5 
	1880,138.5 1854,202.5 1920,183.5 1920,282.5 0,282.5 "/>
</svg>
