<svg id="visual" viewBox="0 0 900 600" width="900" height="600" xmlns="http://www.w3.org/2000/svg"
    xmlns:xlink="http://www.w3.org/1999/xlink" version="1.1">
    <rect x="0" y="0" width="900" height="600" fill="#171c1f"></rect>
    <path
        d="M0 482L11.5 479.7C23 477.3 46 472.7 69 469.8C92 467 115 466 138.2 468.7C161.3 471.3 184.7 477.7 207.8 478.8C231 480 254 476 277 477.7C300 479.3 323 486.7 346 489.7C369 492.7 392 491.3 415.2 490.8C438.3 490.3 461.7 490.7 484.8 490.3C508 490 531 489 554 486C577 483 600 478 623 480.2C646 482.3 669 491.7 692.2 494C715.3 496.3 738.7 491.7 761.8 490.7C785 489.7 808 492.3 831 491.7C854 491 877 487 888.5 485L900 483L900 601L888.5 601C877 601 854 601 831 601C808 601 785 601 761.8 601C738.7 601 715.3 601 692.2 601C669 601 646 601 623 601C600 601 577 601 554 601C531 601 508 601 484.8 601C461.7 601 438.3 601 415.2 601C392 601 369 601 346 601C323 601 300 601 277 601C254 601 231 601 207.8 601C184.7 601 161.3 601 138.2 601C115 601 92 601 69 601C46 601 23 601 11.5 601L0 601Z"
        fill="#ee7752"></path>
    <path
        d="M0 517L11.5 517.3C23 517.7 46 518.3 69 517.3C92 516.3 115 513.7 138.2 511.2C161.3 508.7 184.7 506.3 207.8 504.2C231 502 254 500 277 498.5C300 497 323 496 346 498.2C369 500.3 392 505.7 415.2 506C438.3 506.3 461.7 501.7 484.8 498.7C508 495.7 531 494.3 554 498.2C577 502 600 511 623 515.2C646 519.3 669 518.7 692.2 514.2C715.3 509.7 738.7 501.3 761.8 499.3C785 497.3 808 501.7 831 505C854 508.3 877 510.7 888.5 511.8L900 513L900 601L888.5 601C877 601 854 601 831 601C808 601 785 601 761.8 601C738.7 601 715.3 601 692.2 601C669 601 646 601 623 601C600 601 577 601 554 601C531 601 508 601 484.8 601C461.7 601 438.3 601 415.2 601C392 601 369 601 346 601C323 601 300 601 277 601C254 601 231 601 207.8 601C184.7 601 161.3 601 138.2 601C115 601 92 601 69 601C46 601 23 601 11.5 601L0 601Z"
        fill="#f0625d"></path>
    <path
        d="M0 535L11.5 536.2C23 537.3 46 539.7 69 538.8C92 538 115 534 138.2 534C161.3 534 184.7 538 207.8 538C231 538 254 534 277 535C300 536 323 542 346 540.8C369 539.7 392 531.3 415.2 528.8C438.3 526.3 461.7 529.7 484.8 533.5C508 537.3 531 541.7 554 543.2C577 544.7 600 543.3 623 540C646 536.7 669 531.3 692.2 528.7C715.3 526 738.7 526 761.8 525.8C785 525.7 808 525.3 831 528.8C854 532.3 877 539.7 888.5 543.3L900 547L900 601L888.5 601C877 601 854 601 831 601C808 601 785 601 761.8 601C738.7 601 715.3 601 692.2 601C669 601 646 601 623 601C600 601 577 601 554 601C531 601 508 601 484.8 601C461.7 601 438.3 601 415.2 601C392 601 369 601 346 601C323 601 300 601 277 601C254 601 231 601 207.8 601C184.7 601 161.3 601 138.2 601C115 601 92 601 69 601C46 601 23 601 11.5 601L0 601Z"
        fill="#ee4e6c"></path>
    <path
        d="M0 560L11.5 560.7C23 561.3 46 562.7 69 561.3C92 560 115 556 138.2 556C161.3 556 184.7 560 207.8 562.2C231 564.3 254 564.7 277 564.2C300 563.7 323 562.3 346 563C369 563.7 392 566.3 415.2 567.7C438.3 569 461.7 569 484.8 569.3C508 569.7 531 570.3 554 568C577 565.7 600 560.3 623 559.8C646 559.3 669 563.7 692.2 565.2C715.3 566.7 738.7 565.3 761.8 566.3C785 567.3 808 570.7 831 572C854 573.3 877 572.7 888.5 572.3L900 572L900 601L888.5 601C877 601 854 601 831 601C808 601 785 601 761.8 601C738.7 601 715.3 601 692.2 601C669 601 646 601 623 601C600 601 577 601 554 601C531 601 508 601 484.8 601C461.7 601 438.3 601 415.2 601C392 601 369 601 346 601C323 601 300 601 277 601C254 601 231 601 207.8 601C184.7 601 161.3 601 138.2 601C115 601 92 601 69 601C46 601 23 601 11.5 601L0 601Z"
        fill="#e73c7e"></path>
</svg>