<?xml version="1.0" encoding="utf-8"?>
<!-- Generator: Adobe Illustrator 27.7.0, SVG Export Plug-In . SVG Version: 6.00 Build 0)  -->
<svg version="1.1" id="visual" xmlns="http://www.w3.org/2000/svg" xmlns:xlink="http://www.w3.org/1999/xlink" x="0px" y="0px"
	 viewBox="0 0 960 124" style="enable-background:new 0 0 960 124;" xml:space="preserve">
<style type="text/css">
	.st0{fill:#EE7752;}
	.st1{fill:#F0625D;}
	.st2{fill:#EE4E6C;}
	.st3{fill:#E73C7E;}
</style>
<path class="st0" d="M0,18l12.3-2.2c12.4-2.1,37-6.5,61.7-9s49.3-3.1,74-0.8s49.3,7.7,73.8,8.7s48.9-2.4,73.4-0.7s49.1,8.3,73.8,11
	s49.3,1.3,74,0.8s49.3-0.1,74-0.5c24.7-0.3,49.3-1.3,74-4.1c24.7-2.9,49.3-7.5,73.8-5.5s48.9,10.6,73.4,12.8s49.1-2.2,73.8-3.2
	s49.3,1.4,74,0.7s49.3-4.3,61.7-6.2L960,18v107h-12.3c-12.4,0-37,0-61.7,0s-49.3,0-74,0s-49.3,0-73.8,0s-48.9,0-73.4,0
	s-49.1,0-73.8,0s-49.3,0-74,0s-49.3,0-74,0s-49.3,0-74,0s-49.3,0-73.8,0s-48.9,0-73.4,0s-49.1,0-73.8,0s-49.3,0-74,0s-49.3,0-61.7,0
	H0V18z"/>
<path class="st1" d="M0,49l12.3,0.3c12.4,0.4,37,1,61.7,0.2s49.3-3.2,74-5.5s49.3-4.7,73.8-6.7s48.9-3.6,73.4-5
	C319.7,31,344.3,30,369,32s49.3,7,74,7.3c24.7,0.4,49.3-4,74-6.6c24.7-2.7,49.3-3.7,74-0.2s49.3,11.5,73.8,15.2
	c24.5,3.6,48.9,3,73.4-1s49.1-11.4,73.8-13.2s49.3,1.8,74,4.8s49.3,5.4,61.7,6.5L960,46v79h-12.3c-12.4,0-37,0-61.7,0s-49.3,0-74,0
	s-49.3,0-73.8,0s-48.9,0-73.4,0s-49.1,0-73.8,0s-49.3,0-74,0s-49.3,0-74,0s-49.3,0-74,0s-49.3,0-73.8,0s-48.9,0-73.4,0
	s-49.1,0-73.8,0s-49.3,0-74,0s-49.3,0-61.7,0H0V49z"/>
<path class="st2" d="M0,65l12.3,1.2c12.4,1.1,37,3.5,61.7,2.8s49.3-4.3,74-4.3s49.3,3.6,73.8,3.6s48.9-3.6,73.4-2.8s49.1,6.2,73.8,5
	s49.3-8.8,74-11s49.3,1.2,74,4.7s49.3,7.1,74,8.3s49.3-0.2,73.8-3.2s48.9-7.6,73.4-10c24.5-2.3,49.1-2.3,73.8-2.5
	c24.7-0.1,49.3-0.5,74,2.9c24.7,3.3,49.3,10.3,61.7,13.8L960,77v48h-12.3c-12.4,0-37,0-61.7,0s-49.3,0-74,0s-49.3,0-73.8,0
	s-48.9,0-73.4,0s-49.1,0-73.8,0s-49.3,0-74,0s-49.3,0-74,0s-49.3,0-74,0s-49.3,0-73.8,0s-48.9,0-73.4,0s-49.1,0-73.8,0s-49.3,0-74,0
	s-49.3,0-61.7,0H0V65z"/>
<path class="st3" d="M0,88l12.3,0.7c12.4,0.6,37,2,61.7,0.8s49.3-4.8,74-4.8s49.3,3.6,73.8,5.6s48.9,2.4,73.4,1.9s49.1-1.9,73.8-1.4
	s49.3,2.9,74,4c24.7,1.2,49.3,1.2,74,1.5c24.7,0.4,49.3,1,74-1s49.3-6.6,73.8-7.1s48.9,3.1,73.4,4.3s49.1-0.2,73.8,0.7
	c24.7,0.8,49.3,3.8,74,5.1c24.7,1.4,49.3,1,61.7,0.9L960,99v26h-12.3c-12.4,0-37,0-61.7,0s-49.3,0-74,0s-49.3,0-73.8,0
	s-48.9,0-73.4,0s-49.1,0-73.8,0s-49.3,0-74,0s-49.3,0-74,0s-49.3,0-74,0s-49.3,0-73.8,0s-48.9,0-73.4,0s-49.1,0-73.8,0s-49.3,0-74,0
	s-49.3,0-61.7,0H0V88z"/>
</svg>
