<?xml version="1.0" encoding="utf-8"?>
<!-- Generator: Adobe Illustrator 27.7.0, SVG Export Plug-In . SVG Version: 6.00 Build 0)  -->
<svg version="1.1" id="visual" xmlns="http://www.w3.org/2000/svg" xmlns:xlink="http://www.w3.org/1999/xlink" x="0px" y="0px"
	 viewBox="0 0 960 95" style="enable-background:new 0 0 960 95;" xml:space="preserve">
<style type="text/css">
	.st0{fill:none;stroke:#4CDEA4;stroke-miterlimit:10;}
	.st1{fill:none;stroke:#4CE39A;stroke-miterlimit:10;}
	.st2{fill:none;stroke:#50E88F;stroke-miterlimit:10;}
	.st3{fill:none;stroke:#59EC82;stroke-miterlimit:10;}
	.st4{fill:none;stroke:#64F073;stroke-miterlimit:10;}
	.st5{fill:none;stroke:#72F362;stroke-miterlimit:10;}
	.st6{fill:none;stroke:#81F64E;stroke-miterlimit:10;}
	.st7{fill:none;stroke:#91F934;stroke-miterlimit:10;}
</style>
<path class="st0" d="M0,26l12.3-2.3c12.4-2.4,37-7,61.7-7.2s49.3,4.2,74,6.2s49.3,1.6,73.8,2c24.5,0.3,48.9,1.3,73.4,2
	c24.5,0.6,49.1,1,73.8,1.1c24.7,0.2,49.3,0.2,74-1.8s49.3-6,74-6.7c24.7-0.6,49.3,2,74,1.7s49.3-3.7,73.8-6s48.9-3.7,73.4-3.5
	s49.1,1.8,73.8,2.7c24.7,0.8,49.3,0.8,74,2.8s49.3,6,61.7,8l12.3,2"/>
<path class="st1" d="M0,27l12.3,1.3c12.4,1.4,37,4,61.7,5.5s49.3,1.9,74,0c24.7-1.8,49.3-5.8,73.8-8c24.5-2.1,48.9-2.5,73.4-1.5
	s49.1,3.4,73.8,4c24.7,0.7,49.3-0.3,74-0.8s49.3-0.5,74-1s49.3-1.5,74-2.2c24.7-0.6,49.3-1,73.8,0.7s48.9,5.3,73.4,5.5
	s49.1-3.2,73.8-5s49.3-2.2,74-1s49.3,3.8,61.7,5.2L960,31"/>
<path class="st2" d="M0,42l12.3-0.5C24.7,41,49.3,40,74,38s49.3-5,74-6s49.3,0,73.8,2.2c24.5,2.1,48.9,5.5,73.4,6.6
	c24.5,1.2,49.1,0.2,73.8-0.1c24.7-0.4,49.3,0,74-1.9c24.7-1.8,49.3-5.8,74-7c24.7-1.1,49.3,0.5,74,1.9c24.7,1.3,49.3,2.3,73.8,3.8
	s48.9,3.5,73.4,4.8c24.5,1.4,49.1,2,73.8,0.9c24.7-1.2,49.3-4.2,74-4.7s49.3,1.5,61.7,2.5l12.3,1"/>
<path class="st3" d="M0,47l12.3,0.5c12.4,0.5,37,1.5,61.7,1s49.3-2.5,74-2.5s49.3,2,73.8,2.7c24.5,0.6,48.9,0,73.4-0.2
	s49.1,0.2,73.8-0.2c24.7-0.3,49.3-1.3,74-3c24.7-1.6,49.3-4,74-3.6c24.7,0.3,49.3,3.3,74,5c24.7,1.6,49.3,2,73.8,2.6
	c24.5,0.7,48.9,1.7,73.4,0.5c24.5-1.1,49.1-4.5,73.8-4.5s49.3,3.4,74,3.9s49.3-1.9,61.7-3L960,45"/>
<path class="st4" d="M0,52l12.3,0.8c12.4,0.9,37,2.5,61.7,2.2s49.3-2.7,74-3.7s49.3-0.6,73.8-0.1s48.9,1.1,73.4,2
	c24.5,0.8,49.1,1.8,73.8,2c24.7,0.1,49.3-0.5,74-1.7s49.3-2.8,74-2.3s49.3,3.1,74,3.6s49.3-1.1,73.8-0.6s48.9,3.1,73.4,4
	c24.5,0.8,49.1-0.2,73.8-0.5c24.7-0.4,49.3,0,74-0.7s49.3-2.3,61.7-3.2L960,53"/>
<path class="st5" d="M0,60l12.3,0.7c12.4,0.6,37,2,61.7,2.3s49.3-0.3,74,0.3c24.7,0.7,49.3,2.7,73.8,2.5c24.5-0.1,48.9-2.5,73.4-2.8
	s49.1,1.3,73.8,1.3s49.3-1.6,74-1.6s49.3,1.6,74,2.6s49.3,1.4,74,1.2s49.3-0.8,73.8-1s48.9,0.2,73.4-0.7c24.5-0.8,49.1-2.8,73.8-3.1
	c24.7-0.4,49.3,1,74,1.5s49.3,0.1,61.7,0L960,63"/>
<path class="st6" d="M0,75l12.3-1c12.4-1,37-3,61.7-3.2c24.7-0.1,49.3,1.5,74,1.9c24.7,0.3,49.3-0.7,73.8-0.5
	c24.5,0.1,48.9,1.5,73.4,2.5s49.1,1.6,73.8,2c24.7,0.3,49.3,0.3,74-0.5c24.7-0.9,49.3-2.5,74-2.7s49.3,1.2,74,0.8
	c24.7-0.3,49.3-2.3,73.8-2.6c24.5-0.4,48.9,1,73.4,1s49.1-1.4,73.8-1.2s49.3,1.8,74,1.7c24.7-0.2,49.3-2.2,61.7-3.2l12.3-1"/>
<path class="st7" d="M0,82l12.3-0.3c12.4-0.4,37-1,61.7-1.2s49.3,0.2,74,0.5s49.3,0.7,73.8,1.3c24.5,0.7,48.9,1.7,73.4,2
	c24.5,0.4,49.1,0,73.8-0.8s49.3-2.2,74-2.3c24.7-0.2,49.3,0.8,74,0.5c24.7-0.4,49.3-2,74-2s49.3,1.6,73.8,1.8s48.9-1.2,73.4-1
	s49.1,1.8,73.8,1.8s49.3-1.6,74-1.5c24.7,0.2,49.3,2.2,61.7,3.2l12.3,1"/>
</svg>
