<?xml version="1.0" encoding="utf-8"?>
<!-- Generator: Adobe Illustrator 27.7.0, SVG Export Plug-In . SVG Version: 6.00 Build 0)  -->
<svg version="1.1" id="Layer_1" xmlns="http://www.w3.org/2000/svg" xmlns:xlink="http://www.w3.org/1999/xlink" x="0px" y="0px"
	 viewBox="0 0 401.4 93.7" style="enable-background:new 0 0 401.4 93.7;" xml:space="preserve">
<style type="text/css">
	.st0{fill:#48B0A7;}
</style>
<g>
	<path class="st0" d="M4.6,54.3c0-22.8,14-41.3,38-41.3c16.6,0,29,8.6,27.5,27.5H51.9c-0.7-8.8-6-11.2-11.1-11.2
		c-12.4,0-16.9,12.9-16.9,23.3c0,8.8,3,16,12,16c5.4,0,10.3-2.8,13.5-11.3h18.2c-4.1,19.9-18.5,27.6-34,27.6
		C14.8,84.9,4.6,74,4.6,54.3z"/>
	<path class="st0" d="M70.8,72.1c0-10.5,8.3-15.9,21.8-18.1l7.2-1.4c4.3-0.7,5.8-1.7,6.3-3.7l0.1-0.7c0.6-2.4-1-4.1-4.8-4.1
		c-2.6,0-6.3,0.8-7,4.9l-0.2,1.2H76.8l0.4-2.8c1.6-10.1,8.8-16.5,26.4-16.5c16.8,0,22.6,5.9,20.8,16.7l-5.8,36.3H101l1.5-9h-0.8
		c-1.3,2.6-5.3,10-16.8,10C78.1,84.9,70.8,82.2,70.8,72.1z M94.5,71.9c4,0,8-2.4,8.7-6.2l0.8-4.3c-1.9,1.7-4.6,1.6-6.1,2.1l-4.4,0.9
		c-2.2,0.6-3.7,1.7-3.7,3.8C89.8,69.7,90.3,71.9,94.5,71.9z"/>
	<path class="st0" d="M139.5,13.9H158l-11.1,70h-18.5L139.5,13.9z"/>
	<path class="st0" d="M167.8,13.9h18.5l-4.5,29.2h0.6c1.9-5.6,7.6-12.2,17.4-12.2c10.3,0,16.8,7,14.7,19.5l-5.2,33.5h-18.5l4.5-28.9
		c1-6.7-2.2-8.9-6.4-8.9c-3.5,0-8,1.2-8.9,7.2l-4.8,30.6h-18.5L167.8,13.9z"/>
	<path class="st0" d="M220.5,62.4c0-17.4,12.8-31.5,31.1-31.5c12.1,0,22.8,6.6,22.8,22.5c0,17.3-12.8,31.5-31.1,31.5
		C231.1,84.9,220.5,78.3,220.5,62.4z M245.6,69.6c7.9,0,11.2-7.6,11.2-14.3c0-6.4-3-9.1-7.5-9.1c-7.9,0-11.2,7.6-11.2,14.2
		C238.1,66.8,241.1,69.6,245.6,69.6z"/>
	<path class="st0" d="M306,69.7c4,0,7.5-1.9,9-8.2l4.7-29.6h18.5l-8.2,52h-18.5l1.8-11.2h-1c-1.7,5.6-7.4,12.2-17.2,12.2
		c-10.3,0-16.7-7-14.7-19.5l5.2-33.5h18.5l-4.5,28.9C298.4,67.5,301.8,69.7,306,69.7z"/>
	<path class="st0" d="M372,46.1c-4,0-7.5,1.9-9,8.2l-4.7,29.6h-18.5l8.2-52h18.5l-1.8,11.2h1c1.7-5.6,7.4-12.2,17.2-12.2
		c10.3,0,16.7,7,14.7,19.5l-5.2,33.5h-18.5l4.5-28.9C379.6,48.3,376.2,46.1,372,46.1z"/>
</g>
</svg>
